<svg xmlns="http://www.w3.org/2000/svg" viewBox="0 0 500 500"><path d="M265.9 247.5l.6 3.1H260l.6-3.1c.9-4.2 1.7-9.6 2.5-14.1h.2c.8 4.5 1.7 9.9 2.6 14.1zM84.5 233.4h-.2c-.8 4.5-1.6 9.9-2.5 14.1l-.6 3.1h6.4l-.6-3.1c-.7-4.2-1.6-9.6-2.5-14.1zM500 250c0 57.2-111.9 103.6-250 103.6S0 307.2 0 250s111.9-103.6 250-103.6S500 192.8 500 250zM64.9 224.7H55l-5.1 18.2-1.8 7.8h-.2l-1.8-7.8-5.3-18.2h-10v44.5h8.3V256c0-4.5-.8-11.4-1.2-15.9h.2l2.8 10.7 4.3 14.7h5l4.3-14.7 2.9-10.7h.2c-.4 4.4-1.2 11.4-1.2 15.9v13.1h8.4v-44.4zm36.1 44.4l-10.7-44.5H79l-10.7 44.5h9.5l1.7-9.4h9.8l1.7 9.4h10zm29.6-5.7l-4.9-7.4c-1.5 2.1-3.7 3.8-6.4 3.8-4.5 0-7.6-4.7-7.6-13 0-8.1 3.6-12.9 7.7-12.9 2.4 0 4.1 1.4 5.8 3.3l4.9-7.5a14.4 14.4 0 0 0-10.9-5.9c-8.9 0-17 8.5-17 23.4 0 15.2 7.8 22.7 16.8 22.7 4.6.1 8.7-2.1 11.6-6.5zm39.1-38.7h-10l-5.1 18.2-1.8 7.8h-.2l-1.8-7.8-5.3-18.2h-10v44.5h8.3V256c0-4.5-.8-11.4-1.2-15.9h.2l2.8 10.7 4.3 14.7h5l4.3-14.7 2.9-10.7h.2c-.4 4.4-1.2 11.4-1.2 15.9v13.1h8.4v-44.4zm17.1 0h-9.3v44.5h9.3v-44.5zm30.4 34.6h-13.3v-34.6h-9.3v44.5h22.6v-9.9zm28.7 0h-13.3v-34.6h-9.3v44.5h22.6v-9.9zm33.8 9.8L269 224.7h-11.3L247 269.1h9.5l1.7-9.4h9.8l1.7 9.4h10zm31.4-44.4h-8.9v12.9c0 5.5.8 12.2 1.2 17h-.2l-3.4-10-7.8-19.8h-9.5v44.5h8.9v-12.9c0-5.5-.8-11.9-1.2-17h.2l3.4 9.9 7.8 19.9h9.5v-44.5zm41.6 0h-23v44.5h9.3v-16.3h11.7V243H339v-8.5h13.6v-9.8zm15.4 0h-9.3v44.5h9.3v-44.5zm30.4 34.6h-13.3v-34.6h-9.3v44.5h22.6v-9.9zm40.3-34.6h-10l-5.1 18.2-1.8 7.8h-.2l-1.8-7.8-5.3-18.2h-10v44.5h8.3V256c0-4.5-.8-11.4-1.2-15.9h.2l2.8 10.7 4.3 14.7h5l4.3-14.7 2.9-10.7h.2c-.4 4.4-1.2 11.4-1.2 15.9v13.1h8.4v-44.4zm32.6 31c0-6.2-2.5-10-6.9-12.2l-4.3-2.1c-3.2-1.6-5.2-2.3-5.2-4.4 0-2 1.4-3 3.7-3 2.6 0 4.7 1.1 7 3.2l4.7-7.4c-3.2-4-7.7-6-11.7-6-7.7 0-13.1 6.2-13.1 13.8 0 6.4 3.3 10.5 7.1 12.4l4.4 2.3c3 1.5 4.8 2.2 4.8 4.3 0 2-1.2 3.1-4 3.1-2.6 0-5.7-1.8-8.2-4.3l-5.3 8.1c3.8 4.3 8.9 6.4 13.3 6.4 8.8.1 13.7-6.6 13.7-14.2zm-178.6 74.8c5.8-.3 11.6-1.2 17.4-1.9 1.2-.1 2.3-.7 3.4-1a95.6 95.6 0 0 0 23.8-14.2c6.2-6.2 12.8-12.1 17.7-19.5.7-1 1.6-1.8 2.4-2.7-1.2-.3-2.3-.8-3.5-.8l-43.1-.1c-2.2 0-4.4 0-6.5-.6-8.4-2.3-8.4-2.4-13.1 4.6-.2.3-.6.4-.6.7a9.7 9.7 0 0 1-3.4 6.3l-.3-8.3c0-.2.5-.4.6-.7 2-3-.8-2.1-1.8-2-6.2.8-8.9 5.4-10.5 10.6-2 6.7-5.9 11.1-12.9 12.3-3.8.6-4.5 0-4.4-3.7.1-3.7-.4-7.3-1.9-10.7-.9-2.2-1.8-4.6-1.8-6.8 0-3-1-3.6-3.8-3.6l-39.3.1c-4.1 0-8.1.4-12.2.6-2 4.6-3.9 9.3-6.2 13.7-2.4 4.7-1.7 9.7-1.9 14.6 0 .5-.5 1.1-.7 1.6-.5-.3-1-.6-1.3-1-1.3-1.7-2.3-3.5-3.7-5.2-4.4-5.5-5.8-12.4-7.4-18.9-1-3.8-2.3-5.4-6-5.4l-28.8.1c-1.4 0-2.9.7-4.2 1.4-.5.3-1.1 1.7-.9 1.9 4.2 5 7.9 10.7 12.9 14.7a173.5 173.5 0 0 0 41.5 24.6c2.7 1.1 6.3 3.9 8 3 4.1-2.2 6.7-.4 9.7 1.3 2.6 1.5 2.6-1.2 3.7-2.1-2.5-2.2-1.6-3 1.2-2.6 3.4.5 5.9 2.6 8.6 4.6 6.2 4.6 12.4 4.2 18.2-.9 3.2-2.9 6.8-3.9 10.9-3.8h22c6.1-.1 12.2.1 18.2-.2zM232 207.9c5.8.1 11.5.6 15-5.4.1-.2.5-.2.8-.4l2.5-1.9c-1 0-2 .2-2.9 0-1.6-.4-4 1.4-4.8-1.5-.6-2.4.3-4.9 2.4-5.5 3.2-.9 3.6-2.6 3.4-5.3-.1-.9.8-2.8 1.3-2.8 5.7-.8 9.7-6.1 15.8-5.9.6 0 1.6-.8 1.9-1.4.6-1.7-2.2-8.3-3-7.8-1.9 1.2-3.3 2.9-2.8 5.5.1.5-1.1 1.9-1.4 1.8-2-.6-3.8-1.5-5.7-2.4l.5-1.3c2.4-6 4.8-7.8 11-7.7 2.4 0 4.8.6 7.2.9.5 4.8 2.2 2.6 4.7 1.3 1.4-.7 3.7-3.8 5.9-.4.9-1.2 2.4-2.3 2.7-3.6.5-2.5-1.7-2-3.2-2-2.9 0-6.5 1.1-8.5-.2-4.4-3-9.4-1.4-14-3.2-4.4-1.7-10.1-.4-15.2-.4-4.6 0-4.6.1-8.6 4.4-1.7 1.9-3.5 4.6-5.5 4.9-4.2.6-7.5 2.3-10.4 5.2-.3.3-1.5-.1-1.9-.5-.6-.5-1.2-1.4-1.1-2 .1-.8 1-1.5 1.4-2.3l3.1-7.7c-2.9.6-5.8 1-8.7 1.8-.8.2-2 1.5-2 2.3.3 3.6-2.8 4.7-4.6 6.7-.4.5-2.1-.2-3.2-.4.5-1 .8-2.1 1.5-2.9.5-.6 2.9.3 1.5-1.7-.6-.8-2.1-1.2-3.2-1.3-.9-.1-2.1.4-2.6 1.1-1.4 1.7-4.9 2.7-1.8 6 2.3 2.4 4.2 5.2 6 8 .4.7 0 2.3-.6 3.1-.4.6-1.6.5-2.5.8.9.5 1.9.8 2.7 1.4.2.1-.3 1.7-.4 1.6-5.3-.1-8.7 6-14.8 4.2-1.5-.5-4.3 2-5.9 3.6-3.4 3.6-6.4 7.5-9.5 11.3l-.8 1.3c.5.2 1.1.6 1.6.6h31.6l25.1.1zM87.2 288.3c-2.2-.1-4.2.4-4.7 2.2-.3 1 1.1 3.2 2.3 3.9 8.6 5.3 16.4 12 25.7 16.2 14.5 6.6 28.4 15 44.9 16.3 1.4.1 2.7 2.7 4.6.7l-3.5-2.9c-2.4-1.9-4.6-4.1-7.2-5.7a63.8 63.8 0 0 1-23.2-25.7c-2.2-4.4-4.4-5.2-8.5-5-4.8.2-9.6 0-14.3 0-5.2.1-10.7.2-16.1 0zM118 208c4.9.4 7.9-1.8 9.5-5.8 1.8-4.4 4.8-7.8 8.1-11 4.6-4.4 9.1-9 13.5-13.5.8-.8 1-2.1 1.5-3.2-1.1-.4-2.3-1.2-3.3-1-4.3 1.1-8.6 2.3-12.8 3.8-10 3.7-20.7 5.8-28.9 13.3-8.6 2.2-13.6 9.7-21.1 13.6-.6.3-1.1 1.6-.9 2.3.1.6 1.2 1.3 1.9 1.4l17.2.1c5.1-.1 10.3-.5 15.3 0zm292.8-.2c.8 0 1.7-.6 2.5-.9l-1.4-3.3c-.1-.3-.4-.5-.7-.7a269.4 269.4 0 0 0-46.8-25.7c-2.4-1.1-5.2-1.5-7.8-2-.8-.1-2.4.4-2.4.7 0 1.1.1 2.8.8 3.2 3.6 2 7.4 3.7 11.1 5.5 7.8 3.8 7.8 3.9 2.4 9.5l-.7.7c-3.1 3.2-2.6 6.9 1.5 9.1 3.9 2.2 7.8 4.5 12.8 4 4.1-.4 8.3-.1 12.4-.1h16.3zm-71 122.4c11.3-5.3 23.5-7.8 34.9-12.8a122 122 0 0 0 38.7-24.4c.6-.6.9-1.3 1.4-2-.9-.2-1.7-.6-2.6-.6-3.2-.1-6.4.1-9.6-.1-1.9-.1-2.2.8-3 2.5a21.6 21.6 0 0 1-16.9 13.6c-2.2.4-3.4-.2-3.3-2.4 0-.5.7-.9 1.1-1.4-3-.7-5.3-4.4-9.2-2.2a7.9 7.9 0 0 1-4.2 1.2c-3-.2-4.2 1.5-5.8 3.7-2.5 3.5-5.2 7.5-8.8 9.6-6.2 3.6-10 9.5-15.3 13.9-.2.2-.2.9-.1 1.3 0 .2.5.2.8.4.7 0 1.3 0 1.9-.3zM94.4 317.1l2.5-.9c-.8-.3-1.7-.5-2.5-1-4-2.6-8.6-4.6-11.9-7.9-5.1-5.1-12.7-7.7-15.7-15.2-.7-1.6-3.2-3.5-5-3.6-7.6-.4-15.2-.2-22.9-.1-.5 0-1.2 1.1-1.4 1.9-.1.4.2 1.3.6 1.6 4.3 2.5 9 4.6 13.1 7.5 11.4 8.3 25.2 11.5 37.5 17.7 1 .5 2.5.1 3.8.1.7 0 1.3.1 1.9-.1zM57 207.9c4.4.6 7.9-.7 10.7-4.3 2.1-2.7 4.7-5.2 7.5-7.2 7.6-5.4 15.4-10.5 23-15.9.5-.3.3-1.7.4-2.5l-2 .4-21.4 8.3a195.2 195.2 0 0 0-31.6 16c-1.6 1-2.7 2.6-4.1 4 2 .4 4 .9 6 1.1 1.9.2 3.8 0 5.7 0 2 .1 3.9-.1 5.8.1zm387.9 82.4c-3.2 0-6.4-.1-9.6.1-1.1.1-3 .6-3.2 1.3-1.3 5.1-6.5 6.1-9.5 9.3-4.6 5-10 9-15.9 12.4-.4.2-.7.8-1 1.2.5.2 1.1.6 1.6.7.9.1 2.1.4 2.8 0 11.9-6.6 25.6-9.5 36.4-18.6 2.2-1.8 4.9-3.1 6.6-5.6l-8.3-1 .1.2zm5.3-82.5c1.1-.1 2.1-.7 3.2-1-.9-.9-1.7-2.1-2.7-2.7-2.1-1.1-4.5-1.6-6.5-2.8-11.3-7.3-23-13.5-36.1-16.9-.9-.2-1.6-2.5-2.4-.2-.2.6.9 1.9 1.7 2.5 6.3 4.8 12.8 9.3 18.9 14.3 2.3 1.8 3.3 5.5 5.8 6.6 2.7 1.2 6.3.3 9.5.3h1c2.5 0 5.1.1 7.6-.1zm-168.9-7.6c-3.2.5-5-.3-4.3-4 .1-.5-1-1.6-1.6-1.6-.7-.1-1.6.6-2.1 1.2-.3.4.1 1.3-.1 1.9-.2.9-.6 1.7-.9 2.5-.7-.6-1.6-1.2-2-2-.5-1-.6-2.3-1-3.4-.6-1.8-5.5-4-5.6-3.2-.3 3-.9 3.5-2.9 1.1-2-2.5-3.9-2.8-6-.1-1 1.2-2.4 2.2-3.3 3.4-.7.9-.9 2.1-1.4 3.2 1 .3 2 1 2.9.9 3.9-.7 8.4.4 10 3 1.5 2.5 2.5 2.7 4.7 2.9 4.4.2 8.8.2 13 1 4 .7 4 1.1 3.9-2.9.5-2.7-.1-4.4-3.3-3.9z"/></svg>