<?xml version="1.0" encoding="utf-8"?>
<!-- Generator: Adobe Illustrator 19.0.0, SVG Export Plug-In . SVG Version: 6.00 Build 0)  -->
<svg version="1.1" id="Vector_Smart_Object_xA0_Image_1_"
	 xmlns="http://www.w3.org/2000/svg" xmlns:xlink="http://www.w3.org/1999/xlink" x="0px" y="0px" viewBox="0 0 246 81"
	 style="enable-background:new 0 0 246 81;" xml:space="preserve">
<style type="text/css">
	.st0{fill:#F1F9FF;stroke:#777777;stroke-width:3;stroke-miterlimit:10;}
	.st1{fill-rule:evenodd;clip-rule:evenodd;fill:#777777;}
	.st2{fill:#777777;}
	.st3{font-family:'MyriadPro-Regular';}
	.st4{font-size:38.8947px;}
</style>
<path class="st0" d="M238.1,76.5H7.9c-3,0-5.4-2.4-5.4-5.4V7.9c0-3,2.4-5.4,5.4-5.4h230.3c3,0,5.4,2.4,5.4,5.4v63.3
	C243.5,74.1,241.1,76.5,238.1,76.5z"/>
<path class="st1" d="M22.2,22.8h8.3c-0.1,0.5-0.3,1.1-0.4,1.6v0l0,0.2c-0.4,0.3-0.8,0.8-1.1,1.2l0,0c-0.1,0.1-0.1,0.3-0.2,0.4
	c-0.2,0.4-0.3,0.9-0.3,1.4l0,0v0v0l0,0c0,1.1,0.4,2,1.1,2.7c0.7,0.7,1.7,1.1,2.7,1.1v0h0h0l0,0c1.1,0,2-0.4,2.7-1.1
	c0.7-0.7,1.1-1.7,1.1-2.7h0v0c0-0.7-0.2-1.4-0.5-1.9l0,0l-0.1-0.1c0.1-0.4,0.1-0.7,0.2-1h0l0.1-0.3l0,0l0.1-0.3h0l0,0v0
	c0.1-0.4,0.2-0.8,0.4-1.3h13.1c0.2,0.5,0.3,1,0.5,1.6v0c0.1,0.4,0.2,0.9,0.3,1.3c-0.1,0.1-0.2,0.3-0.2,0.4l0,0l-0.1,0.1l0,0
	c-0.2,0.4-0.3,0.9-0.3,1.4l0,0v0v0l0,0c0,1.1,0.4,2,1.1,2.7c0.7,0.7,1.7,1.1,2.7,1.1v0h0h0l0,0c1.1,0,2-0.4,2.7-1.1
	c0.7-0.7,1.1-1.7,1.1-2.7h0v0c0-1.1-0.5-2.1-1.2-2.8l0,0c-0.1-0.1-0.2-0.2-0.4-0.3c-0.1-0.6-0.2-1.2-0.4-1.8h8.3l-2.3,33
	c-0.2,2.4-2,4.8-4.4,4.4c-11.2-2-17.4-2-28.6,0c-2.4,0.4-4.2-2-4.4-4.4L22.2,22.8L22.2,22.8z M31.2,25.4c0.1-0.9,0.3-1.7,0.5-2.5
	c0.3-1,0.6-2,1-3c2.1-5,5.9-8.2,10.2-8.2h0v0c0.9,0,1.7,0.1,2.5,0.4c0.8,0.3,1.6,0.6,2.3,1.1c3.4,2.2,6,6.6,6.9,12.2
	c0.9,0.4,1.5,1.3,1.5,2.3c0,1.4-1.2,2.6-2.6,2.6s-2.6-1.2-2.6-2.6c0-0.7,0.2-1.3,0.7-1.7c-0.7-4.7-2.8-8.5-5.5-10.2
	c-0.5-0.3-1-0.6-1.5-0.7c-0.5-0.2-1.1-0.3-1.6-0.3v0h0c-2.9,0-5.6,2.5-7.3,6.3c-0.3,0.8-0.6,1.6-0.9,2.5c-0.2,0.7-0.4,1.5-0.5,2.3
	c0.4,0.5,0.7,1.1,0.7,1.7c0,1.4-1.2,2.6-2.6,2.6c-1.4,0-2.6-1.2-2.6-2.6C29.7,26.7,30.3,25.8,31.2,25.4L31.2,25.4z"/>
<text transform="matrix(1 0 0 1 76.75 52.5107)" class="st2 st3 st4">Buy Now</text>
</svg>
